<svg width="695" height="743" viewBox="0 0 695 743" fill="none" xmlns="http://www.w3.org/2000/svg">
<path d="M403.333 13.8665C398.4 16.1332 394 20.7999 392.133 25.7332C389.867 31.4665 390.267 56.6665 392.667 61.1999C394 63.8665 402.267 69.5999 420.933 80.9332C453.467 100.667 495.733 126.4 521.333 142.133C532 148.667 540.8 154.933 541.067 156.133C541.333 157.467 536 161.6 525.733 168.267C503.867 182.4 444.8 219.733 420 235.2C408.4 242.4 398.267 249.6 397.067 251.733C395.2 254.533 394.667 258.4 394.667 270.133C394.667 283.333 394.933 285.467 397.733 289.333C402.8 296.933 407.333 299.333 415.733 299.2C423.333 299.2 423.733 298.933 472 268.8C533.467 230.4 563.2 211.867 602.667 187.6C619.867 177.067 635.067 166.933 636.4 165.067C639.467 160.933 639.733 150.533 636.8 146.133C634.8 143.067 629.867 139.867 576.667 107.733C503.2 63.1999 441.867 25.7332 429.333 17.5999C420.933 12.1332 410.267 10.5332 403.333 13.8665Z" fill="#BD93F9"/>
<path d="M260.667 15.8667C259.2 16.5333 243.6 26 226 36.9333C141.867 89.3333 68.8001 134.667 57.6001 141.333C52.1334 144.533 46.9334 148.533 45.7334 150.133C42.5334 155.067 42.0001 162.933 44.6668 168.4C47.2001 173.733 45.2001 172.533 179.333 250.933C256.133 295.867 263.867 300 269.333 300C276.533 300 282.933 296.4 286.667 290.4C288.933 286.667 289.333 283.6 289.333 271.067C289.333 262.4 288.667 254.667 287.733 252.667C286.133 249.2 279.067 244.8 181.733 186.133C158.8 172.267 140 160.267 140 159.333C140 158.533 141.067 156.8 142.4 155.733C144.533 153.867 215.067 109.867 262 81.0667C273.733 73.7333 284.533 66.6667 286 65.2C288.267 62.9333 288.667 60.5333 289.067 46.2667C289.467 31.0667 289.333 29.7333 286.4 25.4667C284.667 22.9333 281.733 19.7333 279.733 18.2667C275.867 15.3333 264.933 14 260.667 15.8667Z" fill="#BD93F9"/>
<path d="M20.1334 219.066C17.6 220 14.2667 222.4 12.8 224.4C10.2667 227.866 10 230.266 9.60004 251.333C9.06671 277.866 10 281.866 18.2667 287.066C21.0667 288.933 43.7334 302.266 68.6667 316.933C93.6 331.6 134.4 355.733 159.333 370.666C184.267 385.6 212.8 402.533 222.667 408.4C246.667 422.533 248.933 424.266 250.667 430.8C251.6 434.133 252 444.666 251.733 456.933C251.333 476.8 251.2 477.733 248.133 480.133C246.4 481.466 243.867 482.666 242.267 482.666C239.2 482.666 219.2 471.066 143.467 425.733C107.867 404.4 90.2667 394.666 87.7334 394.666C82.8 394.666 76.8 397.733 74.1334 401.6C72.4 404 72 409.066 72 429.466V454.4L75.4667 458.666C77.4667 460.933 81.4667 464 84.5334 465.6C87.4667 467.066 114 482.533 143.333 500C172.667 517.333 207.733 538.133 221.333 546.266C252.8 564.8 252 563.6 252 592.933C252 615.066 251.067 618.933 245.333 621.333C242.267 622.666 240.667 622.4 235.867 619.866C219.733 611.866 83.6 532.133 68.6667 522.133C50.9334 510.266 30.1334 498.666 26.4 498.666C19.8667 498.666 14 502 11.6 507.066C9.73337 510.8 9.33337 515.866 9.33337 533.6C9.33337 560 10.6667 564.266 20.9334 570.133C43.0667 582.8 143.733 642.266 244.667 702.266L292.667 730.8L299.733 730.266C307.733 729.733 312.667 726.666 316.667 719.866C319.333 715.466 319.333 712.933 319.333 556V396.666L316.4 391.333C312.8 384.533 308.267 380.4 297.333 374C292.533 371.2 262 353.2 229.333 334C196.667 314.8 153.467 289.6 133.333 278C113.2 266.4 82.2667 248.4 64.6667 238C47.0667 227.6 30.9334 218.666 28.6667 218.266C26.5334 217.866 22.6667 218.133 20.1334 219.066Z" fill="#BD93F9"/>
<path d="M574.933 262.533C561.2 266.266 556.267 268.8 536.667 281.6C519.867 292.533 452.667 334.266 406 362.666C380 378.4 376 381.733 371.733 391.2L368.667 398V555.333C368.667 702 368.8 712.933 370.933 716.933C376.133 726.266 387.067 730.8 396.533 727.733C399.467 726.666 416.4 716.4 434 704.666C478 675.6 510.933 654.533 558 625.2C580 611.466 602 597.6 606.933 594.533C638.133 574.933 666.667 529.733 675.6 485.733C677.733 475.333 678 466.133 678 405.333C678 339.066 677.867 336.266 675.067 326.533C667.733 300.4 651.733 278.8 632.667 269.066C615.6 260.266 592.8 257.733 574.933 262.533ZM600.267 334.266C607.2 337.066 615.6 346.8 618 355.066C620.933 364.933 620.933 463.333 618 476C613.2 496.666 603.733 513.333 588 529.2C577.733 539.6 572.933 542.933 536.667 564.933C514.667 578.266 485.333 596.4 471.333 605.2C456.133 614.933 444.667 621.333 442.667 621.333C438.4 621.2 435.2 618.8 433.333 614.133C431.6 609.333 431.467 431.866 433.333 425.2C434 422.666 436.267 418.933 438.267 417.066C441.867 413.733 550.267 345.333 564.933 337.066C576.667 330.533 588.533 329.6 600.267 334.266Z" fill="#BD93F9"/>
</svg>
